<?xml version="1.0" standalone="no"?>
<!DOCTYPE svg PUBLIC "-//W3C//DTD SVG 20010904//EN"
 "http://www.w3.org/TR/2001/REC-SVG-20010904/DTD/svg10.dtd">
<svg version="1.0" xmlns="http://www.w3.org/2000/svg"
 width="300.000000pt" height="300.000000pt" viewBox="0 0 300.000000 300.000000"
 preserveAspectRatio="xMidYMid meet">
<metadata>
Created by potrace 1.11, written by Peter Selinger 2001-2013
</metadata>
<g transform="translate(0.000000,300.000000) scale(0.100000,-0.100000)"
fill="#000000" stroke="none">
<path d="M0 1500 l0 -1500 1500 0 1500 0 0 1500 0 1500 -1500 0 -1500 0 0
-1500z m2111 315 c128 -45 199 -178 199 -374 0 -312 -179 -475 -464 -421 -160
30 -239 139 -253 351 -20 304 124 478 387 465 47 -2 106 -12 131 -21z m-1072
-2 c20 -13 201 -368 272 -531 12 -29 14 -2 11 243 -3 206 -1 279 8 290 8 10
31 15 66 15 43 0 55 -4 64 -20 7 -14 10 -139 8 -391 -3 -428 4 -399 -105 -399
-54 0 -68 4 -88 24 -24 24 -191 351 -265 519 l-35 78 3 -302 c2 -239 0 -304
-10 -310 -15 -10 -89 -12 -112 -3 -14 5 -16 49 -16 389 0 335 2 386 16 399 22
23 151 22 183 -1z"/>
<path d="M1880 1689 c-82 -34 -123 -122 -123 -263 -1 -192 59 -276 195 -276
50 0 87 15 125 52 47 46 67 114 68 233 0 92 -3 105 -30 160 -17 32 -42 68 -56
78 -31 23 -141 33 -179 16z"/>
</g>
</svg>
